<?xml version="1.0" encoding="utf-8"?>
<!-- Generator: Adobe Illustrator 24.3.0, SVG Export Plug-In . SVG Version: 6.00 Build 0)  -->
<svg version="1.1" id="レイヤー_1" xmlns="http://www.w3.org/2000/svg" xmlns:xlink="http://www.w3.org/1999/xlink" x="0px"
	 y="0px" width="20px" height="22px" viewBox="0 0 20 22" style="enable-background:new 0 0 20 22;" xml:space="preserve">
<style type="text/css">
	.st0{fill:#2D4365;}
</style>
<g>
	<path class="st0" d="M17.5,6.2v13c0,1-0.8,1.9-1.9,1.9H4.4c-1,0-1.9-0.8-1.9-1.9V2.9c0-1,0.8-1.9,1.9-1.9h8c0.5,0,1,0.2,1.3,0.6
		l3.3,3.3C17.3,5.2,17.5,5.7,17.5,6.2z M15.6,19.1V7.9h-4.1c-0.5,0-0.9-0.4-0.9-0.9V2.9H4.4v16.2H15.6z M13.5,15
		c-0.6,0-1.4-0.3-2.2-0.7c-0.8,0.1-1.8,0.5-2.7,0.8c-2,3.4-3.1,1.8-3,1.2c0.2-0.8,1.2-1.4,2-1.8c0.4-0.7,1-2,1.4-2.9
		c-0.3-1.1-0.4-2-0.3-2.6c0.2-0.7,1.5-0.8,1.7,0.2c0.2,0.6-0.1,1.6-0.2,2.2c0.3,0.8,0.8,1.4,1.4,1.8c0.7-0.1,2-0.2,2.5,0.3
		C14.6,13.9,14.5,15,13.5,15z M7.6,15.2c-0.2,0.2-1,0.8-1.2,1.4C6.4,16.6,6.9,16.4,7.6,15.2z M10.8,13.7c-0.4-0.3-0.9-0.8-1.2-1.4
		c-0.3,0.7-0.6,1.5-1,2.1C9.3,14.2,10,13.9,10.8,13.7z M9.7,10.7c0.2-0.3,0.2-1.6-0.1-1.6C9.5,9.1,9.5,10.2,9.7,10.7z M12.3,13.9
		c1.3,0.5,1.5,0.3,1.5,0.3C13.9,14.2,13.7,13.8,12.3,13.9z M12.5,3v3h3L12.5,3z"/>
</g>
</svg>
