<?xml version="1.0" encoding="utf-8"?>
<!-- Generator: Adobe Illustrator 24.3.0, SVG Export Plug-In . SVG Version: 6.00 Build 0)  -->
<svg version="1.1" id="レイヤー_1" xmlns="http://www.w3.org/2000/svg" xmlns:xlink="http://www.w3.org/1999/xlink" x="0px"
	 y="0px" width="360px" height="60px" viewBox="0 0 360 60" style="enable-background:new 0 0 360 60;" xml:space="preserve">
<style type="text/css">
	.st0{fill:#373838;}
	.st1{fill:none;}
	.st2{fill:#FFFFFF;}
	.st3{fill:#003067;}
	.st4{fill:#D39200;}
	.st5{fill:#FABD00;}
	.st6{fill:#427935;}
	.st7{fill:#F5A200;}
</style>
<g id="レイヤー_4">
</g>
<g>
	<g>
		<g>
			<g>
				<g>
					<path class="st0" d="M201.6,22.8l0.1-1h-2.1v-2.7h-4.3v-1.6h-1.5v1.6h-4l0.3,1h3.7v1.7h-5.3l0.3,1h4.9v1.8h-4l0.3,1h3.7v1.9
						h-4.4l0.4,1h4v1.8h-5.1l0.3,1h4.7v2.4h1.5v-2.4h5.8l0.1-1h-5.9v-1.8h4.7l0.1-1h-4.8v-1.9h4.3v-2.8H201.6z M198.1,24.6h-2.8
						v-1.8h2.8V24.6z M198.1,21.8h-2.8v-1.7h2.8V21.8z"/>
				</g>
			</g>
			<g>
				<path class="st0" d="M218.1,28v-1.6c-0.8-0.7-1.8-1.3-3.1-1.7v1C216.3,26.5,217.4,27.3,218.1,28z"/>
				<path class="st0" d="M203.9,27.3l0.4,1.3c2.5-0.5,5.6-1,8-1.8V26c-1,0.2-2,0.4-3.1,0.6v-2.8h2.8v-0.9h-7.5l0.2,0.9h3v3
					C206.4,27,205.1,27.2,203.9,27.3z"/>
				<path class="st0" d="M223.2,25.3h-0.5c-0.2,2.3-1,2.5-1.9,2.5c-0.8,0-0.9-0.2-0.9-0.7v-4.5h-6.7c0,0.6,0.1,1.2,0.1,2v0.1
					c0,2.3-0.7,3.3-2.9,4.4v0.7c2.6-0.9,4.3-2.4,4.4-5c0-0.4,0-0.8,0-1.3h3.8v3.7c0,1.8,1,1.8,2.3,1.8c2.1,0,2.5-1.3,2.5-1.9
					C223.2,26.8,223.2,25.3,223.2,25.3z"/>
				<path class="st0" d="M212.9,21.5l0.7,0.4c0.8-0.5,1.6-1.3,2.3-2.1h1.3l1.2,2.3h1.7c-0.4-0.4-1.5-1.8-2-2.3h4.3l0.1-1h-5.9
					c0.3-0.4,0.6-0.9,0.8-1.4h-2C215,19,214.1,20.4,212.9,21.5z"/>
				<path class="st0" d="M222.2,31.5l0.2-1H214v-1.4h-1.6v1.4h-8.6l0.2,1h6.9c-2,1.8-4.8,3.3-7.7,4.1l0.6,0.7
					c3.5-0.9,6.4-2.1,8.8-4.4l-0.1,4.7h1.6v-4.8c1.8,2,5.1,3.6,8.2,4.3c0.3-0.3,0.9-1.8,0.9-1.8c-3.5-0.3-6.2-1.2-8.4-2.9h7.4V31.5z
					"/>
				<path class="st0" d="M207.3,19.8h1.2l1.2,2.5h1.8c-0.4-0.5-1.5-1.9-2-2.4h3.6l0.6-1H208c0.3-0.4,0.6-0.9,0.8-1.3h-2
					c-0.5,1.6-1.7,3.4-3.4,4.9l0.7,0.5C205.2,22,206.3,21,207.3,19.8z"/>
			</g>
			<g>
				<path class="st0" d="M247.8,18.2v18.5h1.5V19.3h3.2c-0.6,2-1.3,4.3-2,6.1c1.7,1.4,2.6,2.7,2.6,4.5c0,1.5,0,3-1.3,3
					c-0.1,0-2,0-2,0V33c0,0,1.4,0.8,1.9,1.1c0.1,0.1,0.3,0.1,0.4,0.1c1.8-0.4,2.6-1.6,2.6-4c0-2.2-1-3.7-2.9-5.3l3.1-6.5L247.8,18.2
					z"/>
				<path class="st0" d="M247,19.2l-1.5-0.5c-0.7,1.7-1.9,3.7-3.4,5.3h-0.6v-2.8h2.1l0.3-1h-2.5v-2.7H240v2.7h-4l0.2,1h3.8V24h-4.9
					l0.2,1h5.9c-1.6,1.4-3.7,2.7-6.1,3.8v0.8c0.8-0.2,2-0.6,2.7-0.9v8.2h1.5v-0.6h6v-8.6h-5.8c1.3-0.7,2.5-1.6,3.5-2.6h4l0.3-1h-3.5
					C244.9,22.6,245.9,21.1,247,19.2z M243.7,35.1h-4.5v-3h4.5V35.1z M243.7,28.6v2.6h-4.5v-2.6H243.7z"/>
				<polygon class="st0" points="265.9,17.4 264.1,17.4 264.1,20.1 255.5,20.1 255.7,21.2 274.2,21.2 274.3,20.1 265.9,20.1 				"/>
				<g>
					<path class="st0" d="M272.7,24.7h-6.8v-2.4h-1.7v2.4h-6.5v10.1h1.6v-8.9h4.9v11h1.7v-11h5.2v6.7c0,0.2-0.2,0.4-0.4,0.4h-2.4
						v0.2c0,0,1.2,0.7,2,1.2c0.6,0.4,1.3,0.4,1.9,0c0.5-0.3,0.7-0.8,0.7-1.2L272.7,24.7z"/>
				</g>
				<g>
					<path class="st0" d="M294.7,31.5l0.3-1h-3V22h-6.1v-2.6h8l0.3-1.1h-18.5l0.2,1.1h8.4V22h-6.1v8.4h-3l0.2,1h2.8v5.2h1.6v-5.2
						h10.7v3c0,0.2-0.2,0.4-0.4,0.4c-0.6,0-1.9,0-2.8,0V35c0,0,1.5,0.7,2.4,1.2c0.6,0.3,1.3,0.3,1.8-0.1c0.5-0.4,0.6-0.9,0.6-1.2
						v-3.5L294.7,31.5L294.7,31.5z M284.4,30.4h-4.6v-3.3h4.6V30.4z M284.4,26.1h-4.6V23h4.6V26.1z M290.5,30.4h-4.6v-3.3h4.6V30.4z
						 M290.5,26.1h-4.6V23h4.6V26.1z"/>
				</g>
				<polygon class="st0" points="322.7,22.9 319.7,22.9 319.7,17.5 318.2,17.5 318.2,22.9 315.2,22.9 315.4,23.9 318.2,23.9 
					318.2,36.7 319.7,36.7 319.7,23.9 322.5,23.9 				"/>
				<g>
					<path class="st0" d="M322.1,24.9v0.8c4.3-1,6-2.6,6.7-5.2h3.9c-0.3,2.9-0.6,3.4-1.8,3.4h-2.1v0.2l2.4,1.1c2.5-0.3,2.8-2,3-4.9
						v-0.8h-5.3c0.1-0.6,0.2-1.3,0.2-2.1h-1.6c0,0.8-0.1,1.5-0.2,2.1h-4.8l0.2,1h4.4C326.6,22.7,325.5,24,322.1,24.9z"/>
					<path class="st0" d="M328,28.8V28h-3.2c0-0.7,0-1.6,0-2.3h-1.4V28H321l0.2,1h2.2c-0.2,3-0.7,4.9-2.6,6.6v1.1
						c2.9-2.1,3.7-4.5,3.9-7.7h1.8c-0.1,5.6-0.6,6.2-1.5,6.2c0,0,0,0-1.6,0v0.2l1.7,1.1c1.3-0.1,2-0.7,2.3-2
						C327.9,33.1,328,30.5,328,28.8z"/>
					<path class="st0" d="M334.9,28h-3.1c0-0.7,0-1.6,0-2.2h-1.4V28h-2l0,0l0.2,1h1.8c-0.2,3-0.7,5.1-2.6,6.8v1.1
						c2.9-2.2,3.7-4.6,3.9-7.9h1.7c-0.1,5.9-0.6,6.3-1.6,6.3h-1.6v0.2l1.8,1.2c1.3-0.1,2.1-0.8,2.4-2c0.3-1.3,0.4-4.1,0.4-5.8
						L334.9,28z"/>
				</g>
				<path class="st0" d="M356.8,24.5c-4.3-0.9-7.3-3.2-9.6-5.8l0.5-0.8l-1.8-0.5c-1.6,3.5-5.2,6.9-9.5,9l0.3,0.8
					c4.1-1.7,7.8-4.6,10-7.7c2,2.9,5.9,5.7,8.8,7L356.8,24.5z"/>
				<polygon class="st0" points="341.7,25.8 350.9,25.8 351,24.8 341.6,24.8 				"/>
			</g>
			<path class="st0" d="M63,29.3V18.6h1.7v10.7H63z"/>
			<path class="st0" d="M64.9,35.1h2.8c3.7,0,8.8-2.1,8.8-8.5V18h1.7v8.7c0,8.3-7,9.4-10.3,9.4h-2.8L64.9,35.1z"/>
			<path class="st0" d="M95.9,19.4c0,15.1-9,16.7-12.3,16.7h-1.8l-0.2-1h1.9c3.7,0,10.6-2.5,10.6-15.7L95.9,19.4z"/>
			<g>
				<path class="st0" d="M95.9,18.7H80.4v1H94c0-0.3,0-0.2,0-0.2h1.9C95.9,19.2,95.9,18.9,95.9,18.7z"/>
			</g>
			<path class="st0" d="M124.5,18.2c-4.1,7.6-9.6,10.1-14.3,10.3l0.3,0.8c2.2,0,6.9-1.4,8.8-2.7v9.5h1.7V25.2c1.9-1.7,3.7-4.1,5.5-7
				H124.5z"/>
			<g>
				<rect x="125.9" y="33.7" class="st0" width="17" height="1.5"/>
				<rect x="127.5" y="19.5" class="st0" width="14" height="1"/>
			</g>
			<g>
				<path class="st0" d="M178.7,20.1c-0.8-1.1-1.6-2.3-2.6-3h-1.2c0.7,0.9,1.5,1.9,2.1,3.1L178.7,20.1z"/>
			</g>
			<g>
				<path class="st0" d="M181.4,20.1c-0.8-1.1-1.7-2.3-2.7-3h-1.1c0.7,0.9,1.6,1.9,2.1,3.1L181.4,20.1z"/>
			</g>
			<path class="st0" d="M169.3,20c0.3-0.6,0.7-1.3,1-2H168c-1.3,3.6-3.2,6.5-5.4,8.9v1c2.2-1.8,4.4-4.3,6.2-7h9.2
				c-2.1,9.6-6.3,14.3-12.7,14.3h-1.4L164,36h1.6c6.8,0,12.2-4.1,14.4-16.1h-10.7V20z"/>
			<g>
				<path class="st0" d="M145.4,19c2.5,1.2,5.1,2.9,7,4.5l1-1.5c-2.1-1.4-5.2-2.9-8-3.8l0,0V19z"/>
				<path class="st0" d="M161.6,21.7c0,9.1-7.5,12.2-15.9,12.5v1.6c9.2-0.4,16.6-4,16.6-13.9L161.6,21.7z"/>
			</g>
			<path class="st0" d="M350.7,31h-1.3c0.9,0.8,2,2.4,2.6,3.3c-2.7,0.3-8.6,0.2-10.9,0.2c1.3-1.1,3.2-3.2,4.1-4.7h9.6l0.1-1h-17
				l0.1,1h5.4c-0.5,1.4-2.3,3.5-3.6,4.8h-1.5l0.1,1.6c4.5,0,10.2-0.3,14.3-1c0.5,0.8,0.6,0.9,1,1.6h2.2
				C354.7,35.2,352.3,32.3,350.7,31z"/>
			<circle class="st0" cx="229.6" cy="27" r="1.5"/>
			<g>
				<path class="st0" d="M103.9,30.5c0,1.9-1.7,4.9-4.6,4.9v0.8c3.6,0,6.1-3.4,6.1-6.1v-4h-1.5V30.5z"/>
				<path class="st0" d="M97.5,21.5v0.9h12.4c-1,3.1-1.6,4.1-3.5,6.2v0.9c2.8-2,4.3-4.4,5.6-8C112,21.5,97.5,21.5,97.5,21.5z"/>
			</g>
			<path class="st0" d="M195.6,34.7c-4.6,0-7.1-0.6-8.8-2.3c1.1-2,1.6-4.2,1.8-7v-0.9h-3l2.7-4.9l0.4-1h-5.9l0.2,1h3.6l-3.1,5.8h3.5
				c-0.1,2.4-0.5,4.2-1.2,5.8c-0.8-1.1-1.4-2.6-1.6-4.3h-0.9c0.3,2,0.9,3.9,1.9,5.4c-0.7,1.2-1.6,2.2-2.7,3.2v1.2
				c1.5-1,2.6-2.2,3.5-3.4c2.3,2.3,5.8,2.8,11.9,2.8c0.9,0,2.2,0,2.9,0l1.2-1.9C199.9,34.5,197.7,34.7,195.6,34.7z"/>
			<path class="st0" d="M306.3,34.8v-5.5h6.2l0.2-1.1h-6.3v-4.7h7.2l0.1-1.1h-7.3v-4.7h-1.7v4.7h-4.4c0.5-1.1,1.1-2.5,1.4-3.6
				l-2.1-0.1c-0.6,3.1-1.8,6.3-3.6,8.9h1.2c1-1.2,1.9-2.6,2.6-4.1h4.9v4.7h-6.4l0.2,1.1h6.2v5.5h-8.9l0.2,1.1h18.6l0.2-1.1
				C314.8,34.8,306.3,34.8,306.3,34.8z"/>
		</g>
		<g>
			<path class="st0" d="M72.7,9v0.6H63V9H72.7z"/>
			<path class="st0" d="M76.2,12.3h-0.5V9.6c-0.1,0-0.2,0-0.8,0.1c0,1.1,0,3.1-0.9,4.6l-0.5-0.4c0.2-0.4,0.8-1.5,0.8-4.1
				c-0.2,0-0.6,0.1-0.7,0.1l-0.1-0.6c0.3,0,0.4,0,0.8-0.1V5.6h1.1c0.1-0.3,0.3-1,0.3-1.2l0.6,0.1c-0.1,0.2-0.3,1-0.4,1.1h1.7v3.3
				c0.1,0,0.4-0.1,0.4-0.1v0.5c-0.1,0-0.4,0.1-0.4,0.1v4.4c0,0.6-0.3,0.6-0.7,0.6h-1l-0.1-0.7h1c0.3,0,0.3-0.1,0.3-0.3v-4
				c-0.1,0-0.7,0.1-0.9,0.1C76.2,9.5,76.2,12.3,76.2,12.3z M74.9,9.2c1.2-0.1,1.5-0.2,2.2-0.3V6.1h-2.2V9.2z M76.1,8.4
				c-0.1-0.2-0.3-0.9-0.8-1.7l0.5-0.2c0.3,0.5,0.6,1,0.8,1.6L76.1,8.4z M83.1,14.4c-1.5-0.5-2.2-1.1-2.6-1.5
				c-0.7,0.6-1.4,1.1-2.3,1.5l-0.4-0.5c1.4-0.6,1.9-1.1,2.2-1.4c-0.9-1-1.2-2.1-1.4-2.6l0.5-0.2c0.4,1.3,1,2,1.3,2.4
				c0.9-1,1.2-2,1.4-2.6h-3.7V9h4.4v0.5c-0.6,1.6-1.2,2.5-1.7,3c0.7,0.7,1.6,1,2.4,1.3L83.1,14.4z M81.9,4.8v2.5
				c0,0.2,0.1,0.2,0.3,0.2h0.4c0.3,0,0.3,0,0.4-1.2l0.5,0.2c-0.1,1.3-0.2,1.6-0.9,1.6H82c-0.3,0-0.6-0.1-0.6-0.8v-2h-1.9
				c0,2.1-0.7,2.8-1,3.2L78.1,8c0.8-0.9,0.8-1.7,0.8-3.3h3V4.8z"/>
			<path class="st0" d="M88,10.9c-0.5-0.4-1.3-1.3-1.4-1.6v5.1H86V9.7c-0.8,0.8-1.3,1.1-1.7,1.3l-0.2-0.6c1.8-1.1,3-2.5,3.4-3.7
				h-3.3V6.2H86V4.4h0.6v1.8h1.5v0.5c-0.3,0.8-0.8,1.5-1.3,2.1c0.7,0.8,0.8,0.9,1.6,1.6L88,10.9z M91.3,4.4v3.2h2.5v0.6h-2.5v5.3H94
				V14h-6.1v-0.5h2.8V8.2h-2.2V7.6h2.2V4.4H91.3z"/>
			<path class="st0" d="M104.2,4.9v9.4h-8.9V4.9H104.2z M95.9,5.4v8.2h7.7V5.4H95.9z M101.6,12.3c0,0.7-0.3,0.8-0.7,0.8h-1.4
				l-0.1-0.6h1.4c0.2,0,0.2-0.1,0.2-0.3V8h-4.6V7.5h4.6V5.9h0.6v1.6h1.5V8h-1.5V12.3z M97.5,8.8c0.7,0.8,1.3,1.6,1.8,2.4l-0.5,0.3
				c-0.6-1.1-1.4-2.1-1.7-2.4L97.5,8.8z"/>
			<path class="st0" d="M107.2,9.1c-0.7-0.6-1.2-0.9-1.8-1.3l0.3-0.5c0.8,0.4,1.2,0.7,1.9,1.2L107.2,9.1z M105.4,13.9
				c0.8-1.1,1.6-2.6,2.2-3.9l0.5,0.4c-0.5,1.2-1.4,3-2.2,4L105.4,13.9z M107.8,6.3c-0.4-0.3-1.2-0.9-1.9-1.3l0.3-0.5
				c0.9,0.4,1.7,1.1,2,1.2L107.8,6.3z M113,10.7c0.5,0.6,1.2,1.3,2.3,3.4l-0.6,0.3c-0.1-0.3-0.2-0.5-0.5-1c-1.3,0.2-5,0.5-6,0.5
				l-0.1-0.6c0.5,0,0.6,0,0.8,0c0.1-0.1,0.9-1.6,1.7-3.8h-2.4V9.1h3.2V6.7h-2.7V6.1h2.7V4.4h0.6v1.8h2.9v0.6H112v2.4h3.3v0.6h-4
				c-0.5,1.3-1.1,2.6-1.7,3.8c3.4-0.2,3.8-0.2,4.4-0.3c-0.5-0.9-0.8-1.3-1.4-1.9L113,10.7z"/>
			<path class="st0" d="M121.3,4.4v1.3c0,1.5,0.4,3.7,1.2,5c0.8,1.4,2.1,2.4,3.5,3.2l-0.5,0.6c-2.6-1.6-4-3.2-4.5-6.5
				c-0.2,1.7-0.9,4.7-4.7,6.4l-0.4-0.5c1.3-0.6,3-1.7,3.8-3.4c0.6-1.3,1-3.4,1-4.7V4.4H121.3z"/>
		</g>
	</g>
	<rect x="0.4" y="0.4" class="st1" width="359.3" height="59.2"/>
	<g>
		<path d="M67.5,52.6l-2-5.1h-1.4v5.1H63v-11h2.6c0.4,0,0.7,0,1,0.1s0.6,0.3,0.9,0.5s0.5,0.5,0.6,0.9c0.2,0.4,0.2,0.8,0.2,1.4
			c0,0.5-0.1,0.9-0.2,1.2s-0.3,0.6-0.5,0.8S67.2,46.9,67,47s-0.5,0.2-0.7,0.2l2.1,5.3L67.5,52.6L67.5,52.6z M67.4,44.6
			c0-0.4-0.1-0.7-0.2-1s-0.3-0.5-0.4-0.6c-0.2-0.2-0.4-0.3-0.6-0.3c-0.2-0.1-0.5-0.1-0.7-0.1h-1.4v4.1h1.4c0.6,0,1-0.2,1.4-0.5
			C67.3,45.7,67.4,45.2,67.4,44.6z"/>
		<path d="M70.9,48.9c0,0.4,0,0.8,0.1,1.2s0.2,0.7,0.3,0.9s0.3,0.5,0.5,0.6s0.5,0.2,0.8,0.2c0.4,0,0.7-0.1,0.9-0.3
			c0.2-0.2,0.4-0.5,0.5-0.8l0.8,0.4c-0.2,0.5-0.5,0.9-0.8,1.2c-0.4,0.3-0.8,0.5-1.4,0.5c-0.9,0-1.5-0.4-2-1.1
			c-0.5-0.7-0.7-1.7-0.7-3c0-0.6,0.1-1.1,0.2-1.7c0.1-0.5,0.3-0.9,0.5-1.3c0.2-0.4,0.5-0.6,0.8-0.8s0.7-0.3,1.1-0.3
			c0.5,0,0.8,0.1,1.1,0.3c0.3,0.2,0.6,0.5,0.8,0.8c0.2,0.3,0.3,0.7,0.4,1.2s0.1,0.9,0.1,1.5V49h-4V48.9z M74,48.1
			c0-0.8-0.1-1.4-0.4-1.9c-0.2-0.5-0.6-0.7-1.1-0.7c-0.3,0-0.6,0.1-0.8,0.3c-0.2,0.2-0.4,0.4-0.5,0.7S71.1,47,71,47.3
			s-0.1,0.6-0.1,0.8H74z"/>
		<path d="M79.5,41.6c-0.2-0.1-0.3-0.1-0.4-0.1c-0.2,0-0.4,0.1-0.5,0.2c-0.1,0.1-0.2,0.2-0.3,0.4s-0.1,0.4-0.2,0.6
			c0,0.2,0,0.4,0,0.7V45h1.3v0.8H78v6.8h-1v-6.8h-1V45h1v-1.6c0-0.8,0.2-1.4,0.5-1.9s0.8-0.7,1.5-0.7c0.2,0,0.4,0,0.6,0.1L79.5,41.6
			z M81.7,42.5c0,0.2-0.1,0.4-0.2,0.5s-0.3,0.2-0.5,0.2s-0.4-0.1-0.5-0.2c-0.1-0.1-0.2-0.3-0.2-0.5s0.1-0.4,0.2-0.5s0.3-0.2,0.5-0.2
			s0.3,0.1,0.5,0.2C81.7,42.2,81.7,42.3,81.7,42.5z M80.5,52.6v-7.7h1v7.7H80.5z"/>
		<path d="M87.9,52.6v-4.9c0-0.2,0-0.5,0-0.7s-0.1-0.5-0.2-0.7s-0.2-0.4-0.4-0.5c-0.2-0.1-0.4-0.2-0.6-0.2c-0.3,0-0.5,0.1-0.7,0.2
			c-0.2,0.1-0.4,0.3-0.5,0.6c-0.1,0.2-0.2,0.5-0.3,0.8c-0.1,0.3-0.1,0.6-0.1,1v4.4h-1v-5.7c0-0.2,0-0.3,0-0.5s0-0.4,0-0.6
			c0-0.2,0-0.3,0-0.5c0-0.1,0-0.3,0-0.3h1c0,0.2,0,0.4,0,0.7s0,0.5,0,0.8l0,0c0.1-0.5,0.4-0.9,0.7-1.3s0.7-0.5,1.2-0.5
			c0.4,0,0.7,0.1,1,0.3s0.4,0.4,0.6,0.7c0.1,0.3,0.2,0.6,0.3,1c0,0.4,0.1,0.7,0.1,1.1v4.9L87.9,52.6L87.9,52.6z"/>
		<path d="M92.4,42.5c0,0.2-0.1,0.4-0.2,0.5s-0.3,0.2-0.5,0.2s-0.4-0.1-0.5-0.2c-0.1-0.1-0.2-0.3-0.2-0.5s0.1-0.4,0.2-0.5
			s0.3-0.2,0.5-0.2s0.4,0.1,0.5,0.2C92.4,42.2,92.4,42.3,92.4,42.5z M91.2,52.6v-7.7h1v7.7H91.2z"/>
		<path d="M98.6,52.6v-4.9c0-0.2,0-0.5,0-0.7s-0.1-0.5-0.2-0.7s-0.2-0.4-0.4-0.5c-0.2-0.1-0.4-0.2-0.6-0.2c-0.3,0-0.5,0.1-0.7,0.2
			c-0.2,0.1-0.4,0.3-0.5,0.6c-0.1,0.2-0.2,0.5-0.3,0.8c-0.1,0.3-0.1,0.6-0.1,1v4.4h-1v-5.7c0-0.2,0-0.3,0-0.5s0-0.4,0-0.6
			c0-0.2,0-0.3,0-0.5c0-0.1,0-0.3,0-0.3h1c0,0.2,0,0.4,0,0.7s0,0.5,0,0.8l0,0c0.1-0.5,0.4-0.9,0.7-1.3s0.7-0.5,1.2-0.5
			c0.4,0,0.7,0.1,1,0.3s0.4,0.4,0.6,0.7c0.1,0.3,0.2,0.6,0.3,1c0,0.4,0.1,0.7,0.1,1.1v4.9L98.6,52.6L98.6,52.6z"/>
		<path d="M106.7,52.5c0,0.5,0,1.1-0.1,1.5c-0.1,0.5-0.2,0.9-0.4,1.2c-0.2,0.3-0.5,0.6-0.8,0.8c-0.4,0.2-0.8,0.3-1.3,0.3
			s-1-0.1-1.4-0.3s-0.8-0.5-1.1-0.9l0.7-0.7c0.2,0.3,0.5,0.6,0.8,0.8s0.7,0.3,1.1,0.3c0.3,0,0.6-0.1,0.8-0.2
			c0.2-0.1,0.4-0.3,0.5-0.6s0.2-0.6,0.3-0.9c0.1-0.4,0.1-0.7,0.1-1.2v-1.3l0,0c-0.1,0.5-0.3,0.9-0.6,1.2c-0.3,0.3-0.7,0.5-1.2,0.5
			c-0.4,0-0.7-0.1-1-0.3s-0.6-0.5-0.8-0.9c-0.2-0.4-0.4-0.8-0.5-1.3s-0.2-1-0.2-1.6s0.1-1.1,0.2-1.6s0.3-0.9,0.5-1.3
			c0.2-0.4,0.5-0.6,0.8-0.8s0.7-0.3,1-0.3c0.5,0,0.9,0.1,1.2,0.4c0.3,0.3,0.5,0.7,0.7,1.1l0,0v-1.3h1v7.4H106.7z M105.7,48.7
			c0-0.4,0-0.9-0.1-1.3c-0.1-0.4-0.2-0.7-0.3-1c-0.1-0.3-0.3-0.5-0.5-0.7s-0.4-0.2-0.7-0.2c-0.3,0-0.5,0.1-0.7,0.2
			c-0.2,0.2-0.4,0.4-0.5,0.7s-0.2,0.6-0.3,1s-0.1,0.8-0.1,1.3c0,0.4,0,0.9,0.1,1.2c0.1,0.4,0.2,0.7,0.3,1c0.1,0.3,0.3,0.5,0.5,0.7
			s0.4,0.2,0.7,0.2s0.5-0.1,0.7-0.2c0.2-0.2,0.4-0.4,0.5-0.7s0.2-0.6,0.3-1C105.7,49.6,105.7,49.2,105.7,48.7z"/>
		<path d="M116.7,52.6l-0.7-2.7h-3.4l-0.7,2.7h-1.1l2.8-10.9h1.5l2.7,10.9H116.7z M114.4,42.6L114.4,42.6l-1.6,6.4h3.1L114.4,42.6z"
			/>
		<path d="M120.9,45.1c0.3-0.3,0.6-0.4,1-0.4c0.1,0,0.1,0,0.2,0v1.1H122h-0.1c-0.3,0-0.5,0.1-0.7,0.3s-0.4,0.4-0.5,0.7
			s-0.2,0.6-0.3,1c-0.1,0.4-0.1,0.7-0.1,1.1v3.9h-1v-5.7c0-0.2,0-0.3,0-0.5s0-0.4,0-0.6c0-0.2,0-0.3,0-0.5c0-0.1,0-0.3,0-0.3h1
			c0,0.2,0,0.4,0,0.7s0,0.6,0,0.9l0,0C120.4,45.9,120.6,45.4,120.9,45.1z"/>
		<path d="M125.6,52.8c-0.4,0-0.8-0.1-1.1-0.3s-0.6-0.5-0.8-0.8c-0.2-0.4-0.4-0.8-0.5-1.3s-0.2-1.1-0.2-1.7c0-0.6,0.1-1.2,0.2-1.7
			s0.3-0.9,0.5-1.3c0.2-0.4,0.5-0.6,0.8-0.8s0.7-0.3,1.1-0.3s0.7,0.1,1,0.2c0.3,0.1,0.5,0.3,0.7,0.5l-0.5,0.7
			c-0.1-0.2-0.3-0.3-0.5-0.4c-0.2-0.1-0.4-0.2-0.6-0.2c-0.3,0-0.5,0.1-0.7,0.2c-0.2,0.2-0.4,0.4-0.5,0.7s-0.2,0.6-0.3,1
			c-0.1,0.4-0.1,0.8-0.1,1.3s0,0.9,0.1,1.3c0.1,0.4,0.2,0.7,0.3,1c0.1,0.3,0.3,0.5,0.5,0.6c0.2,0.2,0.5,0.2,0.8,0.2s0.5-0.1,0.7-0.2
			c0.2-0.1,0.4-0.3,0.5-0.5l0.5,0.8C126.8,52.5,126.3,52.8,125.6,52.8z"/>
		<path d="M132.4,52.6v-4.9c0-0.2,0-0.5,0-0.7s-0.1-0.5-0.2-0.7c-0.1-0.2-0.2-0.4-0.4-0.5s-0.4-0.2-0.6-0.2c-0.3,0-0.5,0.1-0.7,0.2
			c-0.2,0.1-0.4,0.3-0.5,0.6c-0.1,0.2-0.3,0.5-0.3,0.8c-0.1,0.3-0.1,0.6-0.1,1v4.4h-1V40.9h1v5.5l0,0c0.1-0.5,0.4-0.9,0.7-1.2
			s0.7-0.5,1.2-0.5c0.4,0,0.7,0.1,1,0.3s0.4,0.4,0.6,0.7c0.1,0.3,0.2,0.6,0.3,1c0,0.4,0.1,0.7,0.1,1.1v4.9h-1.1V52.6z"/>
		<path d="M137,42.5c0,0.2-0.1,0.4-0.2,0.5c-0.1,0.1-0.3,0.2-0.5,0.2s-0.4-0.1-0.5-0.2c-0.1-0.1-0.2-0.3-0.2-0.5s0.1-0.4,0.2-0.5
			c0.1-0.1,0.3-0.2,0.5-0.2s0.4,0.1,0.5,0.2C136.9,42.2,137,42.3,137,42.5z M135.8,52.6v-7.7h1v7.7H135.8z"/>
		<path d="M141.3,52.7c-0.2,0-0.3,0.1-0.5,0.1c-0.5,0-0.9-0.2-1.1-0.6c-0.2-0.4-0.3-0.9-0.3-1.5v-5h-1v-0.8h1v-2.1h1v2.1h1.4v0.8
			h-1.4v4.8c0,0.5,0.1,0.8,0.2,1c0.1,0.2,0.3,0.3,0.6,0.3c0.1,0,0.2,0,0.3,0s0.2-0.1,0.3-0.1v0.8C141.6,52.6,141.4,52.7,141.3,52.7z
			"/>
		<path d="M143.6,48.9c0,0.4,0,0.8,0.1,1.2s0.2,0.7,0.3,0.9s0.3,0.5,0.5,0.6s0.5,0.2,0.8,0.2c0.4,0,0.7-0.1,0.9-0.3s0.4-0.5,0.5-0.8
			l0.8,0.4c-0.2,0.5-0.5,0.9-0.8,1.2c-0.4,0.3-0.8,0.5-1.4,0.5c-0.9,0-1.5-0.4-2-1.1c-0.5-0.7-0.7-1.7-0.7-3c0-0.6,0.1-1.1,0.2-1.7
			c0.1-0.5,0.3-0.9,0.5-1.3c0.2-0.4,0.5-0.6,0.8-0.8s0.7-0.3,1.1-0.3c0.5,0,0.8,0.1,1.1,0.3s0.6,0.5,0.8,0.8s0.3,0.7,0.4,1.2
			c0.1,0.5,0.1,0.9,0.1,1.5V49h-4V48.9z M146.7,48.1c0-0.8-0.1-1.4-0.4-1.9c-0.2-0.5-0.6-0.7-1.1-0.7c-0.3,0-0.6,0.1-0.8,0.3
			s-0.4,0.4-0.5,0.7s-0.2,0.5-0.3,0.8s-0.1,0.6-0.1,0.8C143.5,48.1,146.7,48.1,146.7,48.1z"/>
		<path d="M151.8,52.8c-0.4,0-0.8-0.1-1.1-0.3s-0.6-0.5-0.8-0.8c-0.2-0.4-0.4-0.8-0.5-1.3s-0.2-1.1-0.2-1.7c0-0.6,0.1-1.2,0.2-1.7
			c0.1-0.5,0.3-0.9,0.5-1.3c0.2-0.4,0.5-0.6,0.8-0.8s0.7-0.3,1.1-0.3c0.4,0,0.7,0.1,1,0.2c0.3,0.1,0.5,0.3,0.7,0.5L153,46
			c-0.1-0.2-0.3-0.3-0.5-0.4c-0.2-0.1-0.4-0.2-0.6-0.2c-0.3,0-0.5,0.1-0.7,0.2c-0.2,0.2-0.4,0.4-0.5,0.7s-0.2,0.6-0.3,1
			s-0.1,0.8-0.1,1.3s0,0.9,0.1,1.3c0.1,0.4,0.2,0.7,0.3,1s0.3,0.5,0.5,0.6c0.2,0.2,0.5,0.2,0.8,0.2s0.5-0.1,0.7-0.2
			c0.2-0.1,0.4-0.3,0.5-0.5l0.5,0.8C153.1,52.5,152.5,52.8,151.8,52.8z"/>
		<path d="M156.9,52.7c-0.2,0-0.3,0.1-0.5,0.1c-0.5,0-0.9-0.2-1.1-0.6c-0.2-0.4-0.3-0.9-0.3-1.5v-5h-1v-0.8h1v-2.1h1v2.1h1.4v0.8
			H156v4.8c0,0.5,0.1,0.8,0.2,1c0.1,0.2,0.3,0.3,0.6,0.3c0.1,0,0.2,0,0.3,0s0.2-0.1,0.3-0.1v0.8C157.2,52.6,157,52.7,156.9,52.7z"/>
		<path d="M159.6,44.9v4.9c0,0.2,0,0.5,0,0.7s0.1,0.5,0.2,0.7c0.1,0.2,0.2,0.4,0.4,0.5s0.4,0.2,0.6,0.2c0.3,0,0.5-0.1,0.7-0.2
			s0.4-0.3,0.5-0.6c0.1-0.2,0.2-0.5,0.3-0.8s0.1-0.6,0.1-1v-4.4h1v5.7c0,0.2,0,0.3,0,0.5s0,0.4,0,0.6c0,0.2,0,0.3,0,0.5s0,0.3,0,0.3
			h-1c0-0.2,0-0.4,0-0.7s0-0.5,0-0.8l0,0c-0.1,0.5-0.4,0.9-0.7,1.3c-0.3,0.3-0.7,0.5-1.2,0.5c-0.4,0-0.7-0.1-1-0.3s-0.4-0.4-0.6-0.7
			c-0.1-0.3-0.2-0.6-0.3-1c0-0.4-0.1-0.7-0.1-1.1v-4.9L159.6,44.9L159.6,44.9z"/>
		<path d="M167.7,45.1c0.3-0.3,0.6-0.4,1-0.4c0.1,0,0.1,0,0.2,0v1.1h-0.1h-0.1c-0.3,0-0.5,0.1-0.7,0.3s-0.4,0.4-0.5,0.7
			s-0.2,0.6-0.3,1s-0.1,0.7-0.1,1.1v3.9h-1v-5.7c0-0.2,0-0.3,0-0.5s0-0.4,0-0.6c0-0.2,0-0.3,0-0.5c0-0.1,0-0.3,0-0.3h1
			c0,0.2,0,0.4,0,0.7s0,0.6,0,0.9l0,0C167.2,45.9,167.4,45.4,167.7,45.1z"/>
		<path d="M170.7,48.9c0,0.4,0,0.8,0.1,1.2s0.2,0.7,0.3,0.9s0.3,0.5,0.5,0.6s0.5,0.2,0.8,0.2c0.4,0,0.7-0.1,0.9-0.3s0.4-0.5,0.5-0.8
			l0.8,0.4c-0.2,0.5-0.5,0.9-0.8,1.2c-0.4,0.3-0.8,0.5-1.4,0.5c-0.9,0-1.5-0.4-2-1.1c-0.5-0.7-0.7-1.7-0.7-3c0-0.6,0.1-1.1,0.2-1.7
			c0.1-0.5,0.3-0.9,0.5-1.3c0.2-0.4,0.5-0.6,0.8-0.8s0.7-0.3,1.1-0.3c0.5,0,0.8,0.1,1.1,0.3s0.6,0.5,0.8,0.8s0.3,0.7,0.4,1.2
			c0.1,0.5,0.1,0.9,0.1,1.5V49h-4V48.9z M173.8,48.1c0-0.8-0.1-1.4-0.4-1.9c-0.2-0.5-0.6-0.7-1.1-0.7c-0.3,0-0.6,0.1-0.8,0.3
			s-0.4,0.4-0.5,0.7s-0.2,0.5-0.3,0.8s-0.1,0.6-0.1,0.8C170.6,48.1,173.8,48.1,173.8,48.1z"/>
		<path d="M178.8,47.1c0-0.5,0.4-0.9,0.9-0.9s0.9,0.4,0.9,0.9s-0.4,1-0.9,1S178.8,47.7,178.8,47.1z"/>
		<path d="M190.4,50.3c-0.1,0.5-0.3,0.9-0.5,1.3c-0.2,0.4-0.6,0.7-1,0.9s-0.9,0.3-1.5,0.3s-1.1-0.1-1.5-0.3s-0.7-0.5-1-0.9
			c-0.2-0.4-0.4-0.8-0.5-1.3s-0.2-1-0.2-1.6v-7.1h1.1v7c0,0.4,0,0.8,0.1,1.2s0.2,0.7,0.3,1s0.4,0.5,0.6,0.7c0.3,0.2,0.6,0.3,1,0.3
			s0.8-0.1,1-0.3c0.3-0.2,0.5-0.4,0.6-0.7s0.3-0.6,0.3-1c0.1-0.4,0.1-0.8,0.1-1.2v-7h1.1v7.1C190.6,49.3,190.5,49.8,190.4,50.3z"/>
		<path d="M194.7,45.1c0.3-0.3,0.6-0.4,1-0.4c0.1,0,0.1,0,0.2,0v1.1h-0.1h-0.1c-0.3,0-0.5,0.1-0.7,0.3s-0.4,0.4-0.5,0.7
			s-0.2,0.6-0.3,1s-0.1,0.7-0.1,1.1v3.9h-1v-5.7c0-0.2,0-0.3,0-0.5s0-0.4,0-0.6c0-0.2,0-0.3,0-0.5c0-0.1,0-0.3,0-0.3h1
			c0,0.2,0,0.4,0,0.7s0,0.6,0,0.9l0,0C194.2,45.9,194.4,45.4,194.7,45.1z"/>
		<path d="M202.4,48.7c0,0.6-0.1,1.1-0.2,1.6s-0.3,0.9-0.5,1.3c-0.2,0.4-0.5,0.7-0.8,0.9s-0.6,0.3-1,0.3c-0.5,0-0.9-0.2-1.2-0.5
			s-0.5-0.7-0.6-1.2l0,0v1.4h-1V40.9h1v5.3l0,0c0.1-0.5,0.3-0.8,0.7-1.1c0.3-0.3,0.7-0.4,1.2-0.4c0.4,0,0.7,0.1,1,0.3
			s0.6,0.5,0.8,0.8c0.2,0.4,0.4,0.8,0.5,1.3S202.4,48.1,202.4,48.7z M201.4,48.7c0-0.4,0-0.9-0.1-1.3c-0.1-0.4-0.2-0.7-0.3-1
			s-0.3-0.5-0.5-0.7s-0.4-0.2-0.7-0.2s-0.5,0.1-0.7,0.2c-0.2,0.2-0.4,0.4-0.5,0.7s-0.2,0.6-0.3,1s-0.1,0.8-0.1,1.3s0,0.9,0.1,1.3
			c0.1,0.4,0.2,0.7,0.3,1s0.3,0.5,0.5,0.7s0.4,0.2,0.7,0.2s0.5-0.1,0.7-0.2c0.2-0.2,0.4-0.4,0.5-0.7s0.2-0.6,0.3-1
			S201.4,49.2,201.4,48.7z"/>
		<path d="M207.6,52.6c0-0.1,0-0.2,0-0.3s0-0.3,0-0.4c0-0.1,0-0.3,0-0.4c0-0.1,0-0.2,0-0.3l0,0c-0.3,1.1-0.9,1.6-1.9,1.6
			c-0.2,0-0.4,0-0.6-0.1c-0.2-0.1-0.4-0.2-0.6-0.4c-0.2-0.2-0.3-0.4-0.4-0.7c-0.1-0.3-0.2-0.6-0.2-1c0-0.6,0.1-1,0.3-1.3
			s0.4-0.6,0.7-0.8s0.6-0.3,1-0.4c0.4-0.1,0.7-0.1,1-0.1h0.6v-0.4c0-0.7-0.1-1.2-0.4-1.5c-0.2-0.3-0.6-0.5-1-0.5
			c-0.3,0-0.6,0.1-0.8,0.2c-0.2,0.2-0.5,0.4-0.6,0.6l-0.5-0.6c0.2-0.3,0.5-0.6,0.9-0.8s0.8-0.3,1.1-0.3c0.8,0,1.4,0.3,1.7,0.8
			s0.5,1.3,0.5,2.3V51c0,0.1,0,0.2,0,0.4s0,0.3,0,0.5s0,0.3,0,0.4c0,0.1,0,0.3,0,0.3H207.6z M207.5,48.7h-0.6c-0.2,0-0.5,0-0.7,0.1
			c-0.2,0-0.5,0.1-0.7,0.3c-0.2,0.1-0.3,0.3-0.5,0.5c-0.1,0.2-0.2,0.5-0.2,0.9c0,0.5,0.1,0.9,0.4,1.2c0.2,0.2,0.5,0.4,0.8,0.4
			s0.5-0.1,0.7-0.3s0.4-0.4,0.5-0.7s0.2-0.6,0.3-0.9c0.1-0.3,0.1-0.6,0.1-0.9v-0.6H207.5z"/>
		<path d="M214.5,52.6v-4.9c0-0.2,0-0.5,0-0.7s-0.1-0.5-0.2-0.7c-0.1-0.2-0.2-0.4-0.4-0.5s-0.4-0.2-0.6-0.2c-0.3,0-0.5,0.1-0.7,0.2
			c-0.2,0.1-0.4,0.3-0.5,0.6c-0.1,0.2-0.2,0.5-0.3,0.8s-0.1,0.6-0.1,1v4.4h-1v-5.7c0-0.2,0-0.3,0-0.5s0-0.4,0-0.6c0-0.2,0-0.3,0-0.5
			c0-0.1,0-0.3,0-0.3h1c0,0.2,0,0.4,0,0.7s0,0.5,0,0.8l0,0c0.1-0.5,0.4-0.9,0.7-1.3s0.7-0.5,1.2-0.5c0.4,0,0.7,0.1,1,0.3
			s0.4,0.4,0.6,0.7c0.1,0.3,0.2,0.6,0.3,1c0,0.4,0.1,0.7,0.1,1.1v4.9L214.5,52.6L214.5,52.6z"/>
		<path d="M225.3,52.6l-2-5.1h-1.4v5.1h-1.1v-11h2.6c0.4,0,0.7,0,1,0.1s0.6,0.3,0.9,0.5c0.3,0.2,0.5,0.5,0.6,0.9
			c0.2,0.4,0.2,0.8,0.2,1.4c0,0.5-0.1,0.9-0.2,1.2c-0.1,0.3-0.3,0.6-0.5,0.8s-0.4,0.4-0.6,0.5c-0.2,0.1-0.5,0.2-0.7,0.2l2.1,5.3
			L225.3,52.6L225.3,52.6z M225.2,44.6c0-0.4-0.1-0.7-0.2-1c-0.1-0.3-0.3-0.5-0.4-0.6c-0.2-0.2-0.4-0.3-0.6-0.3
			c-0.2-0.1-0.5-0.1-0.7-0.1h-1.4v4.1h1.4c0.6,0,1-0.2,1.4-0.5C225,45.7,225.2,45.2,225.2,44.6z"/>
		<path d="M228.7,48.9c0,0.4,0,0.8,0.1,1.2s0.2,0.7,0.3,0.9c0.1,0.3,0.3,0.5,0.5,0.6s0.5,0.2,0.8,0.2c0.4,0,0.7-0.1,0.9-0.3
			s0.4-0.5,0.5-0.8l0.8,0.4c-0.2,0.5-0.5,0.9-0.8,1.2c-0.4,0.3-0.8,0.5-1.4,0.5c-0.9,0-1.5-0.4-2-1.1c-0.5-0.7-0.7-1.7-0.7-3
			c0-0.6,0.1-1.1,0.2-1.7c0.1-0.5,0.3-0.9,0.5-1.3s0.5-0.6,0.8-0.8s0.7-0.3,1.1-0.3c0.5,0,0.8,0.1,1.1,0.3s0.6,0.5,0.8,0.8
			s0.3,0.7,0.4,1.2c0.1,0.5,0.1,0.9,0.1,1.5V49h-4V48.9z M231.8,48.1c0-0.8-0.1-1.4-0.4-1.9c-0.2-0.5-0.6-0.7-1.1-0.7
			c-0.3,0-0.6,0.1-0.8,0.3s-0.4,0.4-0.5,0.7s-0.2,0.5-0.3,0.8s-0.1,0.6-0.1,0.8C228.6,48.1,231.8,48.1,231.8,48.1z"/>
		<path d="M239.5,52.5c0,0.5,0,1.1-0.1,1.5c-0.1,0.5-0.2,0.9-0.4,1.2s-0.5,0.6-0.8,0.8c-0.4,0.2-0.8,0.3-1.3,0.3s-1-0.1-1.4-0.3
			s-0.8-0.5-1.1-0.9l0.7-0.7c0.2,0.3,0.5,0.6,0.8,0.8s0.7,0.3,1.1,0.3c0.3,0,0.6-0.1,0.8-0.2c0.2-0.1,0.4-0.3,0.5-0.6
			s0.2-0.6,0.3-0.9c0.1-0.4,0.1-0.7,0.1-1.2v-1.3l0,0c-0.1,0.5-0.3,0.9-0.6,1.2s-0.7,0.5-1.2,0.5c-0.4,0-0.7-0.1-1-0.3
			s-0.6-0.5-0.8-0.9s-0.4-0.8-0.5-1.3s-0.2-1-0.2-1.6s0.1-1.1,0.2-1.6c0.1-0.5,0.3-0.9,0.5-1.3c0.2-0.4,0.5-0.6,0.8-0.8
			s0.7-0.3,1-0.3c0.5,0,0.9,0.1,1.2,0.4c0.3,0.3,0.5,0.7,0.7,1.1l0,0v-1.3h1v7.4H239.5z M238.5,48.7c0-0.4,0-0.9-0.1-1.3
			c-0.1-0.4-0.2-0.7-0.3-1s-0.3-0.5-0.5-0.7s-0.4-0.2-0.7-0.2s-0.5,0.1-0.7,0.2c-0.2,0.2-0.4,0.4-0.5,0.7s-0.2,0.6-0.3,1
			s-0.1,0.8-0.1,1.3c0,0.4,0,0.9,0.1,1.2c0.1,0.4,0.2,0.7,0.3,1s0.3,0.5,0.5,0.7s0.4,0.2,0.7,0.2s0.5-0.1,0.7-0.2
			c0.2-0.2,0.4-0.4,0.5-0.7s0.2-0.6,0.3-1C238.4,49.6,238.5,49.2,238.5,48.7z"/>
		<path d="M242.4,48.9c0,0.4,0,0.8,0.1,1.2s0.2,0.7,0.3,0.9c0.1,0.3,0.3,0.5,0.5,0.6s0.5,0.2,0.8,0.2c0.4,0,0.7-0.1,0.9-0.3
			s0.4-0.5,0.5-0.8l0.8,0.4c-0.2,0.5-0.5,0.9-0.8,1.2c-0.4,0.3-0.8,0.5-1.4,0.5c-0.9,0-1.5-0.4-2-1.1c-0.5-0.7-0.7-1.7-0.7-3
			c0-0.6,0.1-1.1,0.2-1.7c0.1-0.5,0.3-0.9,0.5-1.3c0.2-0.4,0.5-0.6,0.8-0.8s0.7-0.3,1.1-0.3c0.5,0,0.8,0.1,1.1,0.3s0.6,0.5,0.8,0.8
			s0.3,0.7,0.4,1.2c0.1,0.5,0.1,0.9,0.1,1.5V49h-4V48.9z M245.5,48.1c0-0.8-0.1-1.4-0.4-1.9c-0.2-0.5-0.6-0.7-1.1-0.7
			c-0.3,0-0.6,0.1-0.8,0.3s-0.4,0.4-0.5,0.7s-0.2,0.5-0.3,0.8s-0.1,0.6-0.1,0.8C242.3,48.1,245.5,48.1,245.5,48.1z"/>
		<path d="M252.3,52.6v-4.9c0-0.2,0-0.5,0-0.7s-0.1-0.5-0.2-0.7s-0.2-0.4-0.4-0.5s-0.4-0.2-0.6-0.2s-0.5,0.1-0.7,0.2
			c-0.2,0.1-0.4,0.3-0.5,0.6c-0.1,0.2-0.2,0.5-0.3,0.8s-0.1,0.6-0.1,1v4.4h-1v-5.7c0-0.2,0-0.3,0-0.5s0-0.4,0-0.6c0-0.2,0-0.3,0-0.5
			c0-0.1,0-0.3,0-0.3h1c0,0.2,0,0.4,0,0.7s0,0.5,0,0.8l0,0c0.1-0.5,0.4-0.9,0.7-1.3c0.3-0.3,0.7-0.5,1.2-0.5c0.4,0,0.7,0.1,1,0.3
			s0.4,0.4,0.6,0.7c0.1,0.3,0.2,0.6,0.3,1c0,0.4,0.1,0.7,0.1,1.1v4.9L252.3,52.6L252.3,52.6z"/>
		<path d="M256.2,48.9c0,0.4,0,0.8,0.1,1.2s0.2,0.7,0.3,0.9s0.3,0.5,0.5,0.6s0.5,0.2,0.8,0.2c0.4,0,0.7-0.1,0.9-0.3
			c0.2-0.2,0.4-0.5,0.5-0.8l0.8,0.4c-0.2,0.5-0.5,0.9-0.8,1.2c-0.4,0.3-0.8,0.5-1.4,0.5c-0.9,0-1.5-0.4-2-1.1
			c-0.5-0.7-0.7-1.7-0.7-3c0-0.6,0.1-1.1,0.2-1.7c0.1-0.5,0.3-0.9,0.5-1.3c0.2-0.4,0.5-0.6,0.8-0.8s0.7-0.3,1.1-0.3
			c0.5,0,0.8,0.1,1.1,0.3c0.3,0.2,0.6,0.5,0.8,0.8c0.2,0.3,0.3,0.7,0.4,1.2s0.1,0.9,0.1,1.5V49h-4V48.9z M259.3,48.1
			c0-0.8-0.1-1.4-0.4-1.9c-0.2-0.5-0.6-0.7-1.1-0.7c-0.3,0-0.6,0.1-0.8,0.3c-0.2,0.2-0.4,0.4-0.5,0.7s-0.2,0.5-0.3,0.8
			s-0.1,0.6-0.1,0.8C256.1,48.1,259.3,48.1,259.3,48.1z"/>
		<path d="M264,45.1c0.3-0.3,0.6-0.4,1-0.4c0.1,0,0.1,0,0.2,0v1.1h-0.1H265c-0.3,0-0.5,0.1-0.7,0.3s-0.4,0.4-0.5,0.7s-0.2,0.6-0.3,1
			c-0.1,0.4-0.1,0.7-0.1,1.1v3.9h-1v-5.7c0-0.2,0-0.3,0-0.5s0-0.4,0-0.6c0-0.2,0-0.3,0-0.5c0-0.1,0-0.3,0-0.3h1c0,0.2,0,0.4,0,0.7
			s0,0.6,0,0.9l0,0C263.4,45.9,263.7,45.4,264,45.1z"/>
		<path d="M269.7,52.6c0-0.1,0-0.2,0-0.3s0-0.3,0-0.4c0-0.1,0-0.3,0-0.4c0-0.1,0-0.2,0-0.3l0,0c-0.3,1.1-0.9,1.6-1.9,1.6
			c-0.2,0-0.4,0-0.6-0.1s-0.4-0.2-0.6-0.4s-0.3-0.4-0.4-0.7s-0.2-0.6-0.2-1c0-0.6,0.1-1,0.3-1.3c0.2-0.3,0.4-0.6,0.7-0.8
			c0.3-0.2,0.6-0.3,1-0.4c0.4-0.1,0.7-0.1,1-0.1h0.6v-0.4c0-0.7-0.1-1.2-0.4-1.5c-0.2-0.3-0.6-0.5-1-0.5c-0.3,0-0.6,0.1-0.8,0.2
			c-0.2,0.2-0.5,0.4-0.6,0.6l-0.5-0.6c0.2-0.3,0.5-0.6,0.9-0.8s0.8-0.3,1.1-0.3c0.8,0,1.4,0.3,1.7,0.8c0.3,0.5,0.5,1.3,0.5,2.3V51
			c0,0.1,0,0.2,0,0.4s0,0.3,0,0.5s0,0.3,0,0.4c0,0.1,0,0.3,0,0.3H269.7z M269.5,48.7h-0.6c-0.2,0-0.5,0-0.7,0.1
			c-0.2,0-0.5,0.1-0.7,0.3c-0.2,0.1-0.3,0.3-0.5,0.5c-0.1,0.2-0.2,0.5-0.2,0.9c0,0.5,0.1,0.9,0.4,1.2c0.2,0.2,0.5,0.4,0.8,0.4
			s0.5-0.1,0.7-0.3s0.4-0.4,0.5-0.7s0.2-0.6,0.3-0.9c0.1-0.3,0.1-0.6,0.1-0.9L269.5,48.7L269.5,48.7z"/>
		<path d="M274.8,52.7c-0.2,0-0.3,0.1-0.5,0.1c-0.5,0-0.9-0.2-1.1-0.6c-0.2-0.4-0.3-0.9-0.3-1.5v-5h-1v-0.8h1v-2.1h1v2.1h1.4v0.8
			h-1.4v4.8c0,0.5,0.1,0.8,0.2,1s0.3,0.3,0.6,0.3c0.1,0,0.2,0,0.3,0c0.1,0,0.2-0.1,0.3-0.1v0.8C275.1,52.6,274.9,52.7,274.8,52.7z"
			/>
		<path d="M277.7,42.5c0,0.2-0.1,0.4-0.2,0.5s-0.3,0.2-0.5,0.2s-0.4-0.1-0.5-0.2c-0.1-0.1-0.2-0.3-0.2-0.5s0.1-0.4,0.2-0.5
			s0.3-0.2,0.5-0.2s0.4,0.1,0.5,0.2C277.7,42.2,277.7,42.3,277.7,42.5z M276.6,52.6v-7.7h1v7.7H276.6z"/>
		<path d="M284.8,48.7c0,0.6-0.1,1.2-0.2,1.7s-0.3,0.9-0.5,1.3c-0.2,0.4-0.5,0.6-0.8,0.8s-0.7,0.3-1.1,0.3s-0.8-0.1-1.1-0.3
			c-0.3-0.2-0.6-0.5-0.8-0.8c-0.2-0.4-0.4-0.8-0.5-1.3s-0.2-1-0.2-1.7c0-0.6,0.1-1.2,0.2-1.7s0.3-0.9,0.5-1.3
			c0.2-0.4,0.5-0.6,0.8-0.8s0.7-0.3,1.1-0.3s0.8,0.1,1.1,0.3c0.3,0.2,0.6,0.5,0.8,0.8c0.2,0.4,0.4,0.8,0.5,1.3
			C284.8,47.6,284.8,48.1,284.8,48.7z M283.8,48.7c0-0.5,0-0.9-0.1-1.3c-0.1-0.4-0.2-0.7-0.3-1c-0.1-0.3-0.3-0.5-0.5-0.7
			s-0.4-0.2-0.7-0.2c-0.3,0-0.5,0.1-0.7,0.2c-0.2,0.2-0.4,0.4-0.5,0.7s-0.2,0.6-0.3,1c-0.1,0.4-0.1,0.8-0.1,1.3s0,0.9,0.1,1.2
			c0.1,0.4,0.2,0.7,0.3,1c0.1,0.3,0.3,0.5,0.5,0.7s0.4,0.2,0.7,0.2c0.3,0,0.5-0.1,0.7-0.2c0.2-0.2,0.4-0.4,0.5-0.7s0.2-0.6,0.3-1
			C283.8,49.6,283.8,49.2,283.8,48.7z"/>
		<path d="M290.7,52.6v-4.9c0-0.2,0-0.5,0-0.7s-0.1-0.5-0.2-0.7s-0.2-0.4-0.4-0.5s-0.4-0.2-0.6-0.2c-0.3,0-0.5,0.1-0.7,0.2
			c-0.2,0.1-0.4,0.3-0.5,0.6c-0.1,0.2-0.2,0.5-0.3,0.8c-0.1,0.3-0.1,0.6-0.1,1v4.4h-1v-5.7c0-0.2,0-0.3,0-0.5s0-0.4,0-0.6
			c0-0.2,0-0.3,0-0.5c0-0.1,0-0.3,0-0.3h1c0,0.2,0,0.4,0,0.7s0,0.5,0,0.8l0,0c0.1-0.5,0.4-0.9,0.7-1.3c0.3-0.3,0.7-0.5,1.2-0.5
			c0.4,0,0.7,0.1,1,0.3s0.4,0.4,0.6,0.7c0.1,0.3,0.2,0.6,0.3,1c0,0.4,0.1,0.7,0.1,1.1v4.9L290.7,52.6L290.7,52.6z"/>
		<path d="M302.4,52.6l-0.7-2.7h-3.4l-0.7,2.7h-1.1l2.8-10.9h1.5l2.7,10.9H302.4z M300.1,42.6L300.1,42.6l-1.6,6.4h3.1L300.1,42.6z"
			/>
		<path d="M307.7,46.2c-0.1-0.2-0.3-0.4-0.5-0.5s-0.5-0.2-0.8-0.2s-0.6,0.1-0.8,0.4c-0.2,0.2-0.3,0.6-0.3,1s0.1,0.7,0.3,0.9
			c0.2,0.2,0.5,0.4,0.9,0.5c0.2,0.1,0.4,0.2,0.6,0.3s0.4,0.3,0.5,0.4c0.2,0.2,0.3,0.4,0.4,0.6c0.1,0.2,0.2,0.5,0.2,0.9
			c0,0.8-0.2,1.3-0.6,1.8c-0.4,0.4-0.9,0.6-1.6,0.6c-0.4,0-0.8-0.1-1.2-0.3s-0.7-0.5-0.9-0.8l0.6-0.7c0.2,0.3,0.4,0.5,0.6,0.7
			s0.5,0.3,0.9,0.3s0.7-0.1,0.9-0.4s0.3-0.6,0.3-1c0-0.2,0-0.5-0.1-0.6c-0.1-0.2-0.2-0.3-0.3-0.4c-0.1-0.1-0.3-0.2-0.5-0.3
			s-0.3-0.2-0.5-0.2c-0.2-0.1-0.4-0.2-0.6-0.3s-0.3-0.2-0.5-0.4c-0.1-0.2-0.3-0.4-0.3-0.6c-0.1-0.2-0.1-0.5-0.1-0.8s0.1-0.6,0.2-0.9
			c0.1-0.3,0.3-0.5,0.5-0.7s0.4-0.3,0.7-0.4c0.3-0.1,0.5-0.2,0.8-0.2c0.4,0,0.8,0.1,1.1,0.3c0.3,0.2,0.6,0.4,0.8,0.7L307.7,46.2z"/>
		<path d="M313,46.2c-0.1-0.2-0.3-0.4-0.5-0.5s-0.5-0.2-0.8-0.2s-0.6,0.1-0.8,0.4c-0.2,0.2-0.3,0.6-0.3,1s0.1,0.7,0.3,0.9
			c0.2,0.2,0.5,0.4,0.9,0.5c0.2,0.1,0.4,0.2,0.6,0.3s0.4,0.3,0.5,0.4c0.2,0.2,0.3,0.4,0.4,0.6c0.1,0.2,0.2,0.5,0.2,0.9
			c0,0.8-0.2,1.3-0.6,1.8c-0.4,0.4-0.9,0.6-1.6,0.6c-0.4,0-0.8-0.1-1.2-0.3c-0.4-0.2-0.7-0.5-0.9-0.8l0.6-0.7
			c0.2,0.3,0.4,0.5,0.6,0.7s0.5,0.3,0.9,0.3s0.7-0.1,0.9-0.4c0.2-0.3,0.3-0.6,0.3-1c0-0.2,0-0.5-0.1-0.6c-0.1-0.2-0.2-0.3-0.3-0.4
			c-0.1-0.1-0.3-0.2-0.5-0.3s-0.3-0.2-0.5-0.2c-0.2-0.1-0.4-0.2-0.6-0.3s-0.3-0.2-0.5-0.4c-0.1-0.2-0.3-0.4-0.3-0.6
			c-0.1-0.2-0.1-0.5-0.1-0.8s0.1-0.6,0.2-0.9c0.1-0.3,0.3-0.5,0.5-0.7s0.4-0.3,0.7-0.4c0.3-0.1,0.5-0.2,0.8-0.2
			c0.4,0,0.8,0.1,1.1,0.3c0.3,0.2,0.6,0.4,0.8,0.7L313,46.2z"/>
		<path d="M320.2,48.7c0,0.6-0.1,1.2-0.2,1.7s-0.3,0.9-0.5,1.3c-0.2,0.4-0.5,0.6-0.8,0.8s-0.7,0.3-1.1,0.3s-0.8-0.1-1.1-0.3
			c-0.3-0.2-0.6-0.5-0.8-0.8c-0.2-0.4-0.4-0.8-0.5-1.3s-0.2-1-0.2-1.7c0-0.6,0.1-1.2,0.2-1.7s0.3-0.9,0.5-1.3
			c0.2-0.4,0.5-0.6,0.8-0.8s0.7-0.3,1.1-0.3s0.8,0.1,1.1,0.3c0.3,0.2,0.6,0.5,0.8,0.8c0.2,0.4,0.4,0.8,0.5,1.3
			C320.2,47.6,320.2,48.1,320.2,48.7z M319.2,48.7c0-0.5,0-0.9-0.1-1.3c-0.1-0.4-0.2-0.7-0.3-1c-0.1-0.3-0.3-0.5-0.5-0.7
			s-0.4-0.2-0.7-0.2c-0.3,0-0.5,0.1-0.7,0.2c-0.2,0.2-0.4,0.4-0.5,0.7s-0.2,0.6-0.3,1c-0.1,0.4-0.1,0.8-0.1,1.3s0,0.9,0.1,1.2
			c0.1,0.4,0.2,0.7,0.3,1c0.1,0.3,0.3,0.5,0.5,0.7s0.4,0.2,0.7,0.2c0.3,0,0.5-0.1,0.7-0.2c0.2-0.2,0.4-0.4,0.5-0.7s0.2-0.6,0.3-1
			C319.1,49.6,319.2,49.2,319.2,48.7z"/>
		<path d="M324.3,52.8c-0.4,0-0.8-0.1-1.1-0.3c-0.3-0.2-0.6-0.5-0.8-0.8c-0.2-0.4-0.4-0.8-0.5-1.3s-0.2-1.1-0.2-1.7
			c0-0.6,0.1-1.2,0.2-1.7s0.3-0.9,0.5-1.3c0.2-0.4,0.5-0.6,0.8-0.8s0.7-0.3,1.1-0.3s0.7,0.1,1,0.2c0.3,0.1,0.5,0.3,0.7,0.5l-0.5,0.7
			c-0.1-0.2-0.3-0.3-0.5-0.4c-0.2-0.1-0.4-0.2-0.6-0.2c-0.3,0-0.5,0.1-0.7,0.2c-0.2,0.2-0.4,0.4-0.5,0.7s-0.2,0.6-0.3,1
			c-0.1,0.4-0.1,0.8-0.1,1.3s0,0.9,0.1,1.3c0.1,0.4,0.2,0.7,0.3,1c0.1,0.3,0.3,0.5,0.5,0.6c0.2,0.2,0.5,0.2,0.8,0.2s0.5-0.1,0.7-0.2
			c0.2-0.1,0.4-0.3,0.5-0.5l0.3,1C325.6,52.5,325,52.8,324.3,52.8z"/>
		<path d="M328.5,42.5c0,0.2-0.1,0.4-0.2,0.5s-0.3,0.2-0.5,0.2s-0.4-0.1-0.5-0.2c-0.1-0.1-0.2-0.3-0.2-0.5s0.1-0.4,0.2-0.5
			s0.3-0.2,0.5-0.2s0.4,0.1,0.5,0.2C328.5,42.2,328.5,42.3,328.5,42.5z M327.3,52.6v-7.7h1v7.7H327.3z"/>
		<path d="M333.9,52.6c0-0.1,0-0.2,0-0.3s0-0.3,0-0.4c0-0.1,0-0.3,0-0.4c0-0.1,0-0.2,0-0.3l0,0c-0.3,1.1-0.9,1.6-1.9,1.6
			c-0.2,0-0.4,0-0.6-0.1s-0.4-0.2-0.6-0.4s-0.3-0.4-0.4-0.7s-0.2-0.6-0.2-1c0-0.6,0.1-1,0.3-1.3c0.2-0.3,0.4-0.6,0.7-0.8
			c0.3-0.2,0.6-0.3,1-0.4c0.4-0.1,0.7-0.1,1-0.1h0.6v-0.4c0-0.7-0.1-1.2-0.4-1.5c-0.2-0.3-0.6-0.5-1-0.5c-0.3,0-0.6,0.1-0.8,0.2
			c-0.2,0.2-0.5,0.4-0.6,0.6l-0.5-0.6c0.2-0.3,0.5-0.6,0.9-0.8s0.8-0.3,1.1-0.3c0.8,0,1.4,0.3,1.7,0.8c0.3,0.5,0.5,1.3,0.5,2.3V51
			c0,0.1,0,0.2,0,0.4s0,0.3,0,0.5s0,0.3,0,0.4c0,0.1,0,0.3,0,0.3H333.9z M333.8,48.7h-0.6c-0.2,0-0.5,0-0.7,0.1
			c-0.2,0-0.5,0.1-0.7,0.3c-0.2,0.1-0.3,0.3-0.5,0.5c-0.1,0.2-0.2,0.5-0.2,0.9c0,0.5,0.1,0.9,0.4,1.2c0.2,0.2,0.5,0.4,0.8,0.4
			s0.5-0.1,0.7-0.3s0.4-0.4,0.5-0.7s0.2-0.6,0.3-0.9c0.1-0.3,0.1-0.6,0.1-0.9L333.8,48.7L333.8,48.7z"/>
		<path d="M339.1,52.7c-0.2,0-0.3,0.1-0.5,0.1c-0.5,0-0.9-0.2-1.1-0.6c-0.2-0.4-0.3-0.9-0.3-1.5v-5h-1v-0.8h1v-2.1h1v2.1h1.4v0.8
			h-1.4v4.8c0,0.5,0.1,0.8,0.2,1s0.3,0.3,0.6,0.3c0.1,0,0.2,0,0.3,0c0.1,0,0.2-0.1,0.3-0.1v0.8C339.4,52.6,339.2,52.7,339.1,52.7z"
			/>
		<path d="M342,42.5c0,0.2-0.1,0.4-0.2,0.5s-0.3,0.2-0.5,0.2s-0.4-0.1-0.5-0.2c-0.1-0.1-0.2-0.3-0.2-0.5s0.1-0.4,0.2-0.5
			s0.3-0.2,0.5-0.2s0.4,0.1,0.5,0.2C342,42.2,342,42.3,342,42.5z M340.8,52.6v-7.7h1v7.7H340.8z"/>
		<path d="M349.1,48.7c0,0.6-0.1,1.2-0.2,1.7s-0.3,0.9-0.5,1.3c-0.2,0.4-0.5,0.6-0.8,0.8s-0.7,0.3-1.1,0.3s-0.8-0.1-1.1-0.3
			c-0.3-0.2-0.6-0.5-0.8-0.8c-0.2-0.4-0.4-0.8-0.5-1.3s-0.2-1-0.2-1.7c0-0.6,0.1-1.2,0.2-1.7s0.3-0.9,0.5-1.3
			c0.2-0.4,0.5-0.6,0.8-0.8s0.7-0.3,1.1-0.3s0.8,0.1,1.1,0.3c0.3,0.2,0.6,0.5,0.8,0.8c0.2,0.4,0.4,0.8,0.5,1.3
			C349.1,47.6,349.1,48.1,349.1,48.7z M348.1,48.7c0-0.5,0-0.9-0.1-1.3c-0.1-0.4-0.2-0.7-0.3-1c-0.1-0.3-0.3-0.5-0.5-0.7
			s-0.4-0.2-0.7-0.2c-0.3,0-0.5,0.1-0.7,0.2c-0.2,0.2-0.4,0.4-0.5,0.7s-0.2,0.6-0.3,1c-0.1,0.4-0.1,0.8-0.1,1.3s0,0.9,0.1,1.2
			c0.1,0.4,0.2,0.7,0.3,1c0.1,0.3,0.3,0.5,0.5,0.7s0.4,0.2,0.7,0.2c0.3,0,0.5-0.1,0.7-0.2c0.2-0.2,0.4-0.4,0.5-0.7s0.2-0.6,0.3-1
			C348.1,49.6,348.1,49.2,348.1,48.7z"/>
		<path d="M355,52.6v-4.9c0-0.2,0-0.5,0-0.7s-0.1-0.5-0.2-0.7s-0.2-0.4-0.4-0.5s-0.4-0.2-0.6-0.2c-0.3,0-0.5,0.1-0.7,0.2
			c-0.2,0.1-0.4,0.3-0.5,0.6c-0.1,0.2-0.2,0.5-0.3,0.8c-0.1,0.3-0.1,0.6-0.1,1v4.4h-1v-5.7c0-0.2,0-0.3,0-0.5s0-0.4,0-0.6
			c0-0.2,0-0.3,0-0.5c0-0.1,0-0.3,0-0.3h1c0,0.2,0,0.4,0,0.7s0,0.5,0,0.8l0,0c0.1-0.5,0.4-0.9,0.7-1.3c0.3-0.3,0.7-0.5,1.2-0.5
			c0.4,0,0.7,0.1,1,0.3s0.4,0.4,0.6,0.7c0.1,0.3,0.2,0.6,0.3,1c0,0.4,0.1,0.7,0.1,1.1v4.9L355,52.6L355,52.6z"/>
	</g>
	<rect x="2.4" y="2.8" class="st2" width="54.9" height="54.9"/>
	<g>
		<path d="M55.7,56.1H4V4.4h51.8L55.7,56.1L55.7,56.1z M5,55.1h49.7V5.4H5V55.1z"/>
		<rect x="10.7" y="25.6" class="st3" width="9.3" height="9.3"/>
		<rect x="25.2" y="40.1" width="9.3" height="15.7"/>
		<rect x="10.7" y="40.1" class="st4" width="9.3" height="9.3"/>
		<g>
			<path d="M17.5,16.9c1.2,0,1.8-0.5,1.8-1.8v-2.2c0-1.3-0.6-1.8-1.8-1.8h-6.8v9.3h1.8v-7.7H17c0.6,0,0.8,0.1,0.8,0.7v1.1
				c0,0.6-0.3,0.7-0.8,0.7h-3.8c-0.1,0-0.2,0.2-0.1,0.2l4.8,4.9h2.2l-3.6-3.5h1V16.9z"/>
			<path d="M28.8,25.6l-4.5,9.3h1.8l0.9-2h5l0.9,2H35l-4.5-9.3C30.5,25.6,28.8,25.6,28.8,25.6z M27.9,31.2l1.8-3.8l1.7,3.8H27.9z"/>
			<path d="M47.1,40.1v7.6h-5.5v-7.6h-1.9v7c0,1.3,0.9,2.3,2,2.3H47c1.1,0,2-1,2-2.2v-7.1H47.1z"/>
		</g>
		<rect x="39.7" y="25.6" class="st5" width="9.3" height="9.3"/>
		<rect x="39.7" y="11.1" class="st6" width="9.3" height="9.3"/>
		<rect x="25.3" y="11" class="st7" width="9.3" height="9.3"/>
	</g>
</g>
</svg>
